<svg width="720" height="860" viewBox="0 0 720 860" fill="none" xmlns="http://www.w3.org/2000/svg">
  <defs>
    <linearGradient id="bg" x1="80" y1="40" x2="650" y2="820" gradientUnits="userSpaceOnUse">
      <stop stop-color="#102945"/>
      <stop offset="1" stop-color="#081A2F"/>
    </linearGradient>
    <linearGradient id="accent" x1="170" y1="170" x2="570" y2="690" gradientUnits="userSpaceOnUse">
      <stop stop-color="#42D3A5"/>
      <stop offset="1" stop-color="#12B984"/>
    </linearGradient>
    <filter id="blur" x="-100" y="-100" width="920" height="1060" filterUnits="userSpaceOnUse">
      <feGaussianBlur stdDeviation="55"/>
    </filter>
  </defs>
  <rect width="720" height="860" fill="url(#bg)"/>
  <circle cx="610" cy="170" r="245" fill="#42D3A5" fill-opacity="0.16" filter="url(#blur)"/>
  <circle cx="100" cy="760" r="220" fill="#F1AD70" fill-opacity="0.11" filter="url(#blur)"/>
  <circle cx="360" cy="418" r="250" stroke="#42D3A5" stroke-opacity="0.23" stroke-width="2"/>
  <circle cx="360" cy="418" r="205" stroke="#FFFFFF" stroke-opacity="0.1" stroke-width="2"/>
  <path d="M110 173C225 93 356 75 493 119C563 142 622 182 670 239" stroke="url(#accent)" stroke-width="3" stroke-linecap="round"/>
  <path d="M50 678C156 761 280 792 413 769C522 750 609 701 676 621" stroke="#FFFFFF" stroke-opacity="0.12" stroke-width="2" stroke-linecap="round"/>
  <text x="360" y="475" fill="#FFFFFF" text-anchor="middle" font-family="Manrope, Arial, sans-serif" font-size="184" font-weight="800" letter-spacing="-18">YÖ</text>
  <rect x="272" y="556" width="176" height="5" rx="2.5" fill="url(#accent)"/>
  <text x="360" y="608" fill="#AAB8C5" text-anchor="middle" font-family="DM Mono, Consolas, monospace" font-size="18" letter-spacing="5">BACKEND DEVELOPER</text>
  <g opacity="0.7">
    <circle cx="102" cy="287" r="5" fill="#42D3A5"/>
    <circle cx="625" cy="535" r="5" fill="#F1AD70"/>
    <circle cx="557" cy="705" r="4" fill="#42D3A5"/>
  </g>
</svg>
